<svg xmlns="http://www.w3.org/2000/svg" viewBox="0 0 900 650" role="img" aria-labelledby="title desc"><title id="title">Cute minimalist social marketing illustration</title><desc id="desc">A simple pastel illustration of a phone, hearts, sparkles, coffee and social media cards.</desc><rect width="900" height="650" rx="36" fill="#fffaf7"/><circle cx="740" cy="135" r="105" fill="#f6e1dc"/><circle cx="160" cy="520" r="120" fill="#edf1e9"/><path d="M105 105 C130 75 175 80 184 120 C193 80 238 75 263 105 C291 140 256 185 184 225 C112 185 77 140 105 105Z" fill="#e5aaa3"/><path d="M710 90 C725 72 752 74 758 99 C764 74 791 72 806 90 C824 112 801 138 758 162 C715 138 692 112 710 90Z" fill="#d8a09a"/><g transform="translate(265 75) rotate(-7)"><rect x="0" y="0" width="270" height="455" rx="38" fill="#17202b"/><rect x="14" y="14" width="242" height="427" rx="28" fill="#f4e8e3"/><circle cx="135" cy="35" r="5" fill="#17202b"/><rect x="40" y="90" width="190" height="150" rx="24" fill="#fff"/><circle cx="85" cy="145" r="28" fill="#e5aaa3"/><path d="M72 145 l10 10 20-24" fill="none" stroke="#fff" stroke-width="7" stroke-linecap="round" stroke-linejoin="round"/><text x="145" y="140" text-anchor="middle" font-family="Arial,sans-serif" font-size="19" font-weight="700" fill="#17202b">SOCIAL</text><text x="145" y="166" text-anchor="middle" font-family="Arial,sans-serif" font-size="19" font-weight="700" fill="#17202b">MADE SIMPLE</text><rect x="40" y="265" width="190" height="18" rx="9" fill="#d8e1d3"/><rect x="40" y="296" width="140" height="12" rx="6" fill="#d9c9c3"/><rect x="40" y="318" width="170" height="12" rx="6" fill="#d9c9c3"/><circle cx="83" cy="380" r="25" fill="#e5aaa3"/><circle cx="135" cy="380" r="25" fill="#d8e1d3"/><circle cx="187" cy="380" r="25" fill="#ead9c9"/></g><g transform="translate(75 330)"><ellipse cx="105" cy="185" rx="100" ry="28" fill="#eaded8"/><rect x="55" y="70" width="105" height="110" rx="20" fill="#e8c8c0"/><path d="M78 70 Q108 38 138 70" fill="none" stroke="#c68e86" stroke-width="8"/><path d="M78 72 Q45 15 83 0 M115 55 Q110 -8 150 5 M135 70 Q180 25 194 55" fill="none" stroke="#9da88f" stroke-width="13" stroke-linecap="round"/><path d="M84 110 C93 97 112 99 117 116 C122 99 141 97 150 110 C161 128 145 146 117 162 C89 146 73 128 84 110Z" fill="#fff"/></g><g transform="translate(615 355)"><ellipse cx="95" cy="190" rx="120" ry="28" fill="#eaded8"/><path d="M30 65 h130 v105 q0 25-25 25 H55 q-25 0-25-25Z" fill="#d8a09a"/><path d="M160 90 q65 0 65 48 q0 48-65 48" fill="none" stroke="#c68e86" stroke-width="13"/><path d="M55 65 q40-35 80 0" fill="none" stroke="#fff" stroke-width="6"/><path d="M65 125 C77 108 99 111 105 130 C111 111 133 108 145 125 C157 146 136 165 105 181 C74 165 53 146 65 125Z" fill="#fff"/></g><g fill="#d8a09a"><path d="M635 245 l8 18 18 8-18 8-8 18-8-18-18-8 18-8z"/><path d="M205 255 l6 14 14 6-14 6-6 14-6-14-14-6 14-6z"/><circle cx="575" cy="105" r="8"/><circle cx="850" cy="285" r="6"/></g></svg>