<svg xmlns="http://www.w3.org/2000/svg" viewBox="0 0 1000 720" role="img" aria-labelledby="title desc"><title id="title">Solely Social Marketing creative studio</title><desc id="desc">A colorful cute editorial illustration of a creative marketing desk with a laptop, phone, coffee, flowers, social media cards and decorative shapes.</desc><rect width="1000" height="720" rx="42" fill="#fff8f5"/><circle cx="820" cy="105" r="170" fill="#f3d4cf"/><circle cx="125" cy="590" r="150" fill="#e5eedf"/><path d="M0 565C170 505 280 610 455 565s300-45 545 5v150H0Z" fill="#f8eee9"/><path d="M90 125c35-55 110-60 140-10-20 65-90 110-140 130-50-20-120-65-140-130 30-50 105-45 140 10Z" fill="#e9a6a0" opacity=".95"/><g transform="translate(250 105) rotate(-2)"><rect x="0" y="0" width="510" height="335" rx="28" fill="#d9e5d4"/><rect x="18" y="18" width="474" height="280" rx="16" fill="#fff"/><rect x="38" y="38" width="434" height="46" rx="12" fill="#f7e6e1"/><circle cx="65" cy="61" r="9" fill="#e4aaa3"/><circle cx="94" cy="61" r="9" fill="#d8e3d3"/><circle cx="123" cy="61" r="9" fill="#ead7c8"/><rect x="48" y="108" width="200" height="155" rx="16" fill="#f5ddd8"/><rect x="264" y="108" width="190" height="70" rx="16" fill="#e8f0e4"/><rect x="264" y="192" width="190" height="71" rx="16" fill="#f1e3d6"/><path d="M85 210c22-45 62-45 84 0" fill="none" stroke="#d18f88" stroke-width="12" stroke-linecap="round"/><circle cx="125" cy="158" r="34" fill="#e5aaa3"/><circle cx="113" cy="153" r="4" fill="#17202b"/><circle cx="137" cy="153" r="4" fill="#17202b"/><path d="M113 171q12 12 24 0" fill="none" stroke="#17202b" stroke-width="4" stroke-linecap="round"/><path d="M300 140h105M300 158h72" stroke="#8e9b85" stroke-width="8" stroke-linecap="round"/><path d="M300 218h110M300 237h82" stroke="#c69a8f" stroke-width="8" stroke-linecap="round"/><rect x="188" y="335" width="135" height="18" rx="9" fill="#bfcdb9"/><path d="M135 353h240l-32 28H167Z" fill="#cbd7c5"/></g><g transform="translate(675 375) rotate(7)"><rect width="175" height="290" rx="30" fill="#17202b"/><rect x="12" y="12" width="151" height="266" rx="22" fill="#f5e9e4"/><rect x="32" y="42" width="111" height="85" rx="18" fill="#fff"/><circle cx="87" cy="83" r="25" fill="#e6aaa3"/><path d="M74 84l9 9 18-21" fill="none" stroke="#fff" stroke-width="6" stroke-linecap="round" stroke-linejoin="round"/><rect x="32" y="145" width="111" height="12" rx="6" fill="#d8e3d3"/><rect x="32" y="168" width="82" height="9" rx="4" fill="#d9c8c1"/><rect x="32" y="195" width="111" height="52" rx="15" fill="#ead8cc"/></g><g transform="translate(55 395)"><ellipse cx="105" cy="195" rx="105" ry="30" fill="#e8d9d3"/><rect x="50" y="78" width="110" height="112" rx="20" fill="#e4b8af"/><path d="M77 78q28-42 56 0" fill="none" stroke="#c88d85" stroke-width="9"/><path d="M76 78Q45 20 79 5m39 73Q110 0 151 10m-8 68q45-40 57-3" fill="none" stroke="#91a187" stroke-width="14" stroke-linecap="round"/><circle cx="105" cy="125" r="27" fill="#f5eee9"/><path d="M95 125l8 8 15-18" fill="none" stroke="#c88d85" stroke-width="5" stroke-linecap="round"/></g><g transform="translate(420 500)"><ellipse cx="92" cy="112" rx="120" ry="24" fill="#eadcd6"/><path d="M20 25h145v92q0 24-24 24H44q-24 0-24-24Z" fill="#d99e97"/><path d="M165 45q52 0 52 43t-52 43" fill="none" stroke="#c2847c" stroke-width="12"/><path d="M52 25q40-31 80 0" fill="none" stroke="#fff" stroke-width="7"/><path d="M70 73c13-20 35-20 46 0" fill="none" stroke="#fff" stroke-width="6" stroke-linecap="round"/></g><g fill="#d9918a"><path d="M875 235l10 23 24 10-24 10-10 23-10-23-24-10 24-10z"/><path d="M210 315l8 18 18 8-18 8-8 18-8-18-18-8 18-8z"/><circle cx="915" cy="340" r="9"/></g><g fill="none" stroke="#8fa287" stroke-width="5" stroke-linecap="round"><path d="M865 455c20-25 42-27 62-8"/><path d="M880 445l-10-20m28 12 4-25m10 31 18-18"/></g><text x="500" y="680" text-anchor="middle" font-family="Arial,sans-serif" font-size="20" font-weight="700" letter-spacing="6" fill="#17202b">SOLELY SOCIAL MARKETING</text></svg>